<?xml version="1.0"?><svg width="2470" height="1740.9999999999998" xmlns="http://www.w3.org/2000/svg">
 <title>Three Mountain peaks</title>
 <defs>
  <linearGradient id="svg_1" x2="1" y2="1">
   <stop stop-color="#00bf00" offset="0"/>
   <stop stop-color="#000000" stop-opacity="0.996094" offset="1"/>
  </linearGradient>
  <linearGradient id="svg_35" x1="0.078125" y1="0.068359" x2="0.976563" y2="0.998047">
   <stop stop-color="#e5e5e5" stop-opacity="0.996094" offset="0"/>
   <stop stop-color="#ff00ff" stop-opacity="0.996094" offset="1"/>
  </linearGradient>
  <linearGradient y1="0.003906" x1="1" y2="0.007812" x2="0.007812" id="svg_2">
   <stop offset="0" stop-opacity="0.996094" stop-color="#007f00"/>
   <stop offset="1" stop-opacity="0.996094" stop-color="#007f3f"/>
  </linearGradient>
  <linearGradient y1="0.003906" x1="1" y2="0.007812" x2="0.007812" id="svg_3">
   <stop offset="0" stop-opacity="0.992188" stop-color="#037a50"/>
   <stop offset="1" stop-opacity="0.996094" stop-color="#007f3f"/>
  </linearGradient>
  <linearGradient y1="0.003906" x1="1" y2="0.003906" x2="0.425781" id="svg_4">
   <stop offset="0" stop-opacity="0.992188" stop-color="#037a50"/>
   <stop offset="1" stop-opacity="0.996094" stop-color="#007f3f"/>
  </linearGradient>
 </defs>
 <metadata id="metadata2377">image/svg+xml</metadata>
 <g>
  <title>Layer 1</title>
  <path d="m2034.869751,1446.906616c3.146484,2.086304 6.670898,3.602295 10.113037,5.264282c0.432373,0.091797 0.832764,0.309814 1.263916,0.405029c-3.143799,-3.283813 -7.200684,-4.654663 -11.376953,-5.669312z" id="path3556" stroke-width="1px" fill-rule="nonzero" fill="url(#svg_1)"/>
  <path d="m1346.77002,167.280045c7.79248,1.444916 3.327637,0.816925 -0.632202,0.404984c0.219116,-0.124817 0.412964,-0.280167 0.632202,-0.404984z" id="path3554" stroke-width="1px" fill-rule="nonzero" fill="url(#svg_1)"/>
  <path d="m1600.22522,563.518921c0.251099,2.783203 0.663208,5.514709 0.842529,8.301392c-5.550049,0.10907 -3.661865,-4.099731 -0.842529,-8.301392z" id="path3552" stroke-width="1px" fill-rule="nonzero" fill="url(#svg_1)"/>
  <path d="m167.982788,1229.856201c0.400513,3.605713 -1.17746,7.059692 -7.373962,9.313477c2.397034,-3.122925 4.865326,-6.283081 7.373962,-9.313477z" id="path3548" stroke-width="1px" fill-rule="nonzero" fill="url(#svg_1)"/>
  <path d="m490.121429,1241.599365c3.355835,0.575439 6.772705,1.141846 10.112915,1.822266c-3.516235,1.32019 -6.911743,0.261719 -10.112915,-1.822266z" id="path3537" stroke-width="1px" fill-rule="nonzero" fill="url(#svg_1)"/>
  <g id="svg_27">
   <path d="m1944.423462,793.169922c-3.706665,0.40802 -7.549194,2.239624 -11.885376,6.068176c-8.189575,9.071045 -15.217773,18.688782 -20.113159,30.096252c-8.873535,18.726257 -17.13916,37.750061 -25.903931,56.52887c-11.369995,25.266663 -23.17981,50.513 -38.061035,73.899475c-12.010254,17.820679 -24.671875,35.228394 -40.671265,49.665771c-6.154297,6.115234 -14.619263,12.407898 -17.993286,19.869629c-2.506958,5.542603 7.051392,14.634766 12.435791,11.883667c7.554565,-3.864624 13.35083,-12.451172 19.109131,-19.062927c13.38916,-18.075317 23.478027,-38.320496 33.887329,-58.218018c13.07959,-24.647461 26.311035,-49.325745 39.808594,-73.741882c9.416016,-18.206848 20.275879,-35.448242 31.998413,-52.201355c4.732544,-8.228699 11.61438,-13.867798 18.854248,-19.382385c5.557495,7.001038 8.151611,16.23114 11.375366,24.550049c4.542358,11.910706 8.254639,24.085083 11.614258,36.377197c3.19104,12.239197 10.528564,17.240967 21.415405,21.589966c6.990234,1.457397 13.606201,-0.597717 20.346558,-2.231384c0.722046,-0.656677 0.776123,-0.663757 1.052734,-0.929016c-0.390381,0.413269 -0.439209,0.667969 1.541504,-0.634033c17.187988,9.551453 31.320557,23.129333 44.730591,37.39325c16.363281,18.449463 28.791504,39.690613 39.645752,61.773254c4.933594,8.59314 7.989014,17.765686 10.045654,27.136719c-1.823486,0.359985 -3.695557,0.705078 -5.519287,1.070068c-14.094727,4.582886 -15.02832,15.143555 -11.961914,27.807495c1.758789,5.872925 3.842773,11.613159 6.219971,17.213867c-3.174805,-1.196045 -6.30127,-2.408447 -9.47583,-3.609253c-8.368652,-2.698608 -16.938232,-2.993042 -25.611084,-2.884521c-9.481445,-0.097778 -16.438599,3.801514 -23.727295,9.342163c-3.006836,3.7146 -6.43689,6.968262 -9.823486,10.25769c-3.608887,2.227905 -7.967041,1.472412 -12.010376,1.666504c-12.140747,-1.497681 -24.264648,-2.123657 -36.437988,-1.930298c-14.702393,5.130493 -18.186646,18.196899 -23.879517,31.439087c-5.069214,13.218628 -13.541016,23.097168 -23.92334,32.140625c-7.462158,5.645996 -15.73877,5.442749 -24.319092,5.921753c-6.946533,-1.801514 -9.242432,-7.35083 -12.998047,-12.867676c-4.021484,-7.755005 -6.686157,-16.098267 -9.741821,-24.265259c-3.47876,-11.556274 -10.62085,-19.933716 -18.794189,-28.268921c-11.516724,-8.91626 -24.004639,-8.99292 -37.729736,-8.644165c-9.296997,1.036987 -18.512451,2.482056 -27.814453,3.399536c0.124756,-1.778931 -4.608887,-6.111328 -6.030396,-7.937988c-6.242554,-6.456421 -13.281372,-7.239868 -21.660767,-7.85083c-0.125366,-0.002197 -0.217651,0.038818 -0.340942,0.037842c-0.04126,-0.000366 -0.073364,0.012573 -0.113892,0.011963c-3.285156,-0.539795 -6.08606,-0.2948 -7.477539,1.053101c-4.663452,1.494141 -7.439087,4.68689 -11.351685,9.960938c-0.277344,0.373291 -0.163818,0.907715 0.135742,1.263062c1.820313,2.160889 3.504395,4.052612 5.20105,5.588501c-1.609863,2.875122 -3.294922,5.673218 -4.844482,8.433472c-10.94458,17.995972 -24.523193,34.119019 -38.472656,49.773193c-18.752075,21.144409 -38.745728,41.057373 -58.263428,61.473389c-19.602173,20.947998 -40.27478,40.925537 -60.598389,61.148071c-20.150879,19.134277 -40.122681,38.443237 -60.425171,57.411133c-19.491821,19.416626 -39.719971,38.011475 -59.930786,56.656738c-21.532837,20.873169 -44.262939,40.2948 -67.878296,58.693115c-18.741821,12.944336 -37.882202,25.369507 -57.444702,36.98291c-27.285645,29.079468 6.492065,41.922852 33.830444,34.402344c32.871704,-11.588379 66.209473,-20.757202 100.540161,-26.599365c17.268188,-2.600952 34.691528,-4.738159 52.048218,-4.778442c-7.104858,13.650024 -14.925659,26.836182 -21.252197,40.914795c-11.136597,25.066895 -1.232422,45.622681 25.849243,50.038086c23.044678,-3.674438 45.264282,-11.190063 68.263062,-15.504883c18.308594,-2.515137 36.735596,-3.407471 55.130005,-5.005493c20.291016,-2.308472 40.542725,-4.682495 60.963867,-5.292358c9.734009,-1.204956 18.988647,-0.368164 27.699463,1.960693c-0.403809,0.871948 -0.681274,1.552612 -1.206543,2.686768c-9.567627,15.237793 -19.692017,29.260742 -19.123291,47.885986c7.526489,24.492432 28.908936,18.811401 47.422241,12.112427c14.787964,-5.993408 30.158813,-8.861328 45.886841,-9.683105c4.407104,2.217896 5.584473,4.380371 8.689087,9.159058c9.047119,12.687012 21.513062,21.236206 34.641479,29.089355c11.749878,6.880371 24.227173,10.388794 37.165283,11.956543c-2.268433,0.917236 -4.460938,1.854858 -6.707764,2.827759c-10.610352,6.451782 -18.441528,14.038208 -29.974243,18.630005c-0.428711,0.171265 0.048828,1.396118 0.477417,1.224976c11.397217,-4.536377 21.849854,-4.365234 33.990356,-5.822021c25.730347,-5.927612 51.362915,-12.762817 77.723022,-15.262939c21.838745,-2.333862 44.551514,-0.761108 65.440552,-8.574097c16.59082,-8.664917 21.269287,-21.216064 14.696777,-38.797729c-3.484131,-10.575195 -6.951904,-19.194702 2.730225,-25.97937c10.279053,-7.500732 22.039551,-12.435303 34.733887,-14.965576c34.788086,-9.552002 69.814941,-18.101074 105.433594,-23.88269c43.265625,-6.64856 87.052002,-11.290894 130.469727,-2.807495c6.290039,0.957764 15.944824,2.414307 24.753662,4.491211c3.038818,6.507324 7.608643,10.625366 12.802246,15.328491c7.646973,5.363281 16.037354,5.171631 24.845947,5.408569c25.220215,-0.866943 31.895264,-38.344116 12.156494,-52.810791c-2.517822,-0.554443 -5.052246,-0.952393 -7.614258,-1.26001c0.119629,0.105713 0.266602,0.19165 0.379883,0.307617c-0.35791,-0.151489 -0.72168,-0.322754 -1.085449,-0.463867c-5.665771,-0.630249 -11.380859,-0.685547 -17.182617,-0.438599c1.937744,-1.522217 4.559082,-2.414307 7.782959,-2.479858c1.193848,0.292358 2.398682,0.357788 3.620117,0.534302c-0.282227,-0.156372 -0.581055,-0.312622 -0.857422,-0.489014c-8.163086,-5.171753 -16.276367,-10.343384 -23.038818,-17.460815c-12.922119,-13.408081 -24.812744,-27.506592 -36.801514,-41.746338c-17.785156,-23.428955 -35.754395,-46.822632 -49.810547,-72.862427c-20.085938,-33.525269 -39.515381,-67.378052 -58.526855,-101.53772c-18.501465,-34.629272 -36.172119,-69.762451 -55.449707,-103.966675c-14.137695,-25.43042 -29.149658,-50.332642 -43.222168,-75.790894c-6.078125,-11.592285 -11.07666,-23.80127 -12.699219,-36.839478c1.736328,-0.462036 3.413574,-0.928711 5.128418,-1.49231c11.51123,-6.276611 18.105225,-14.317017 12.195068,-27.832458c-8.270996,-11.174316 -18.110596,-20.932068 -26.452393,-32.077332c-15.006104,-19.872375 -28.861572,-40.582153 -43.981689,-60.367981c-12.368408,-16.083618 -25.453369,-31.61322 -36.193848,-48.904541c-7.424438,-7.473267 -12.835205,-12.547668 -24.069702,-9.911011c-2.376953,0.547363 -4.580322,1.551514 -7.071289,1.589966c-1.943237,-0.943848 -5.042114,-0.819641 -5.829102,-2.847473c-6.290039,-10.45636 -11.679321,-21.291077 -15.168945,-33.081909c-3.424316,-12.189819 -5.741943,-24.954163 -11.48938,-36.275085c-6.832886,-4.947876 -12.694092,-8.255066 -18.870239,-7.575378l0,0z" stroke-width="1px" fill-rule="nonzero" fill="#457c60" id="svg_25"/>
  </g>
  <g id="svg_28">
   <path d="m1237.359375,984.594116c-3.265869,0.32959 -6.651978,1.809082 -10.472778,4.901794c-7.216064,7.327393 -13.408936,15.096497 -17.722412,24.311218c-7.818848,15.126831 -15.102051,30.493896 -22.824951,45.663086c-10.018677,20.409912 -20.424561,40.803467 -33.537231,59.694702c-10.582764,14.395386 -21.73938,28.456909 -35.837158,40.119141c-5.422729,4.939819 -12.88147,10.022949 -15.85437,16.050537c-2.209106,4.477173 6.213135,11.821533 10.957397,9.599365c6.65686,-3.121826 11.76416,-10.057861 16.838135,-15.398804c11.797485,-14.60083 20.687256,-30.95459 29.859253,-47.027466c11.525146,-19.90979 23.183838,-39.844604 35.077271,-59.567505c8.296631,-14.707153 17.865845,-28.634521 28.194824,-42.167419c4.170166,-6.646973 10.234009,-11.202148 16.613281,-15.656677c4.896973,5.655273 7.182861,13.111267 10.023438,19.831177c4.002563,9.621216 7.273438,19.455444 10.233765,29.384766c2.81189,9.886719 9.2771,13.927002 18.869873,17.440063c6.159668,1.177368 11.989014,-0.48291 17.928345,-1.80249c0.63623,-0.530518 0.683838,-0.536133 0.927734,-0.750366c-0.344238,0.33374 -0.387329,0.539551 1.358154,-0.512207c15.14502,7.715576 27.597778,18.683594 39.414185,30.205566c14.418213,14.90332 25.369385,32.061401 34.93335,49.899536c4.347046,6.941406 7.039307,14.350708 8.851685,21.92041c-1.606812,0.290894 -3.25647,0.569702 -4.863403,0.864502c-12.419312,3.701904 -13.241821,12.232666 -10.539917,22.462402c1.549683,4.744019 3.385864,9.380981 5.480469,13.905029c-2.797363,-0.966064 -5.552246,-1.945435 -8.349487,-2.915283c-7.374023,-2.180054 -14.925049,-2.417969 -22.566772,-2.3302c-8.354492,-0.078979 -14.485107,3.070801 -20.907471,7.546509c-2.64917,3.000488 -5.671631,5.628784 -8.655762,8.285889c-3.179932,1.799683 -7.02002,1.189453 -10.582764,1.346069c-10.697754,-1.209717 -21.380615,-1.715332 -32.107056,-1.559082c-12.954956,4.144165 -16.025146,14.699219 -21.041382,25.395996c-4.466553,10.677734 -11.931519,18.657471 -21.079834,25.962646c-6.575195,4.560669 -13.86792,4.396484 -21.428589,4.783447c-6.12085,-1.4552 -8.143921,-5.937988 -11.452881,-10.394287c-3.543701,-6.264404 -5.891479,-13.004028 -8.583984,-19.601074c-3.065308,-9.334961 -9.358643,-16.102051 -16.560303,-22.835205c-10.148071,-7.202393 -21.151611,-7.264282 -33.245239,-6.982544c-8.192017,0.837524 -16.312256,2.004883 -24.508545,2.746094c0.109985,-1.437012 -4.061157,-4.936646 -5.313721,-6.412231c-5.500488,-5.215332 -11.702637,-5.848267 -19.086182,-6.341675c-0.110474,-0.001831 -0.191772,0.03125 -0.300415,0.030518c-0.036255,-0.000244 -0.064453,0.010132 -0.100342,0.009521c-2.894531,-0.435913 -5.362671,-0.238037 -6.588623,0.85083c-4.109253,1.206909 -6.555054,3.785889 -10.002441,8.046265c-0.244385,0.301392 -0.144409,0.733276 0.119507,1.020142c1.604004,1.745605 3.087891,3.273682 4.582886,4.514404c-1.418579,2.322632 -2.90332,4.582764 -4.268677,6.812378c-9.643677,14.536987 -21.608398,27.560791 -33.899902,40.205933c-16.523132,17.0802 -34.140442,33.165527 -51.338318,49.657227c-17.272034,16.921387 -35.487671,33.058838 -53.395691,49.394287c-17.755554,15.456299 -35.353699,31.053833 -53.243103,46.375854c-17.174988,15.684326 -34.998901,30.704956 -52.807495,45.766357c-18.97345,16.86084 -39.001892,32.549438 -59.810364,47.411255c-16.514099,10.456177 -33.379517,20.493042 -50.616882,29.874146c-24.042297,23.489868 5.720398,33.864502 29.809387,27.789551c28.964844,-9.36084 58.339905,-16.767212 88.590088,-21.48645c15.215759,-2.100952 30.568298,-3.827393 45.861877,-3.859985c-6.260254,11.026245 -13.151611,21.677734 -18.726257,33.050293c-9.812866,20.248657 -1.085938,36.853271 22.776855,40.419922c20.305725,-2.96814 39.884277,-9.039063 60.149414,-12.524414c16.132385,-2.031982 32.369263,-2.752686 48.577332,-4.043457c17.879272,-1.864746 35.723816,-3.782471 53.717712,-4.275146c8.577271,-0.973267 16.731812,-0.297363 24.407104,1.58374c-0.355713,0.704468 -0.60022,1.254272 -1.062988,2.17041c-8.430542,12.308716 -17.351563,23.636475 -16.850464,38.681519c6.631958,19.784546 25.4729,15.195557 41.785645,9.784302c13.030518,-4.841431 26.574219,-7.158081 40.432983,-7.821899c3.883179,1.791504 4.920654,3.53833 7.65625,7.398438c7.97168,10.248413 18.956177,17.154297 30.524048,23.497925c10.353394,5.557861 21.347412,8.391968 32.748047,9.658203c-1.998901,0.741089 -3.93103,1.498413 -5.910645,2.28418c-9.349121,5.21167 -16.249634,11.339966 -26.411621,15.049194c-0.377808,0.138184 0.042969,1.127686 0.420654,0.98938c10.042603,-3.664429 19.252808,-3.526123 29.950317,-4.702881c22.672241,-4.788208 45.258057,-10.30957 68.485107,-12.329102c19.242798,-1.885254 39.256226,-0.614868 57.662354,-6.925903c14.618896,-6.999512 18.741211,-17.138184 12.949951,-31.34021c-3.069946,-8.542603 -6.125488,-15.505249 2.405762,-20.985718c9.057129,-6.05896 19.419922,-10.045044 30.605469,-12.088989c30.653076,-7.715942 61.516968,-14.621704 92.901855,-19.291992c38.123169,-5.370605 76.705322,-9.120605 114.962158,-2.267822c5.542725,0.77356 14.049927,1.950195 21.811401,3.627808c2.677856,5.25647 6.704346,8.583008 11.280884,12.382202c6.737915,4.332275 14.131226,4.17749 21.892578,4.368896c22.222534,-0.700195 28.10437,-30.973633 10.711548,-42.659668c-2.218506,-0.447876 -4.451782,-0.769287 -6.708984,-1.017822c0.105225,0.085449 0.234619,0.154907 0.334717,0.248535c-0.315552,-0.122437 -0.636108,-0.26062 -0.956299,-0.374756c-4.992554,-0.509155 -10.028076,-0.553711 -15.140381,-0.354248c1.707397,-1.229614 4.016968,-1.950195 6.857666,-2.003174c1.052002,0.236206 2.11377,0.289063 3.189819,0.431519c-0.248657,-0.126221 -0.511963,-0.252441 -0.755493,-0.394897c-7.192505,-4.177734 -14.341675,-8.355225 -20.300293,-14.104492c-11.386353,-10.830933 -21.863647,-22.219482 -32.427612,-33.722046c-15.670898,-18.925537 -31.504517,-37.82251 -43.890137,-58.857056c-17.698486,-27.081177 -34.818604,-54.42688 -51.570313,-82.020508c-16.302246,-27.9729 -31.872803,-56.352905 -48.858887,-83.982422c-12.457397,-20.542236 -25.684814,-40.657837 -38.084839,-61.222778c-5.355713,-9.364014 -9.760254,-19.226196 -11.189941,-29.758179c1.530029,-0.373169 3.007935,-0.750244 4.518921,-1.205444c10.143066,-5.070313 15.953125,-11.565063 10.745605,-22.482666c-7.287964,-9.026367 -15.958008,-16.908569 -23.308228,-25.911499c-13.222534,-16.052612 -25.431396,-32.781616 -38.754272,-48.76416c-10.898193,-12.992188 -22.428101,-25.536743 -31.891846,-39.504272c-6.542114,-6.036865 -11.309692,-10.135864 -21.20874,-8.006104c-2.094727,0.442261 -4.036011,1.253296 -6.231079,1.284424c-1.712036,-0.762451 -4.442749,-0.662109 -5.135986,-2.300171c-5.54248,-8.446533 -10.291138,-17.198486 -13.366089,-26.723022c-3.017334,-9.846741 -5.059326,-20.157532 -10.123779,-29.302429c-6.020874,-3.996765 -11.185425,-6.668274 -16.627441,-6.119202l0,0z" stroke-width="1px" fill-rule="nonzero" fill="#3f7f00" id="svg_29"/>
  </g>
  <g id="svg_31">
   <path d="m623.584106,1153.159424c-2.649292,0.255127 -5.395752,1.400513 -8.494995,3.794678c-5.853394,5.672485 -10.876709,11.68689 -14.37561,18.820435c-6.342285,11.710327 -12.25,23.606689 -18.514526,35.349854c-8.126587,15.800293 -16.567383,31.587891 -27.203735,46.212402c-8.584167,11.144043 -17.63385,22.029785 -29.069275,31.058105c-4.398743,3.824097 -10.448914,7.759155 -12.860474,12.425293c-1.791809,3.466064 5.039917,9.151733 8.888306,7.431396c5.399536,-2.416748 9.542358,-7.786255 13.658081,-11.920898c9.569702,-11.303223 16.78064,-23.963379 24.22052,-36.406128c9.348511,-15.413086 18.805542,-30.845459 28.452759,-46.113892c6.72998,-11.385498 14.491943,-22.167236 22.870483,-32.643677c3.382568,-5.145752 8.30127,-8.672119 13.47583,-12.120605c3.972168,4.378052 5.826294,10.150024 8.130493,15.352173c3.246582,7.448242 5.899902,15.061401 8.301147,22.748169c2.280762,7.653687 7.525146,10.781494 15.306396,13.501099c4.996216,0.911377 9.724854,-0.373779 14.54248,-1.395386c0.516113,-0.410645 0.554688,-0.415039 0.752441,-0.580933c-0.279053,0.258423 -0.313965,0.417725 1.101807,-0.396484c12.284912,5.9729 22.385986,14.463745 31.970825,23.383545c11.695313,11.537231 20.578369,24.82019 28.336304,38.629395c3.526123,5.373657 5.709961,11.109619 7.179932,16.969727c-1.303223,0.225098 -2.641357,0.440918 -3.944824,0.669189c-10.073975,2.865845 -10.741211,9.469849 -8.549561,17.38916c1.256958,3.672607 2.746582,7.262207 4.445557,10.764526c-2.269165,-0.747925 -4.503662,-1.506104 -6.772705,-2.256958c-5.981445,-1.687622 -12.106445,-1.871704 -18.305176,-1.803833c-6.776733,-0.061157 -11.749512,2.377197 -16.958984,5.842041c-2.149048,2.322876 -4.600708,4.357544 -7.02124,6.414551c-2.579346,1.393188 -5.694336,0.920776 -8.584229,1.042114c-8.67749,-0.936523 -17.342896,-1.328003 -26.043701,-1.207031c-10.508301,3.208252 -12.998657,11.379272 -17.067627,19.660156c-3.623169,8.266113 -9.678223,14.443604 -17.098877,20.098877c-5.333496,3.53064 -11.249146,3.403564 -17.381836,3.703125c-4.964966,-1.126587 -6.605957,-4.596802 -9.290161,-8.046753c-2.87439,-4.849487 -4.778809,-10.066895 -6.962891,-15.174072c-2.486328,-7.226563 -7.591187,-12.465332 -13.432861,-17.677734c-8.231567,-5.575684 -17.157043,-5.623657 -26.96698,-5.405518c-6.644836,0.648438 -13.231567,1.552124 -19.880066,2.125854c0.089233,-1.112427 -3.294128,-3.821655 -4.31012,-4.963989c-4.461792,-4.037476 -9.492676,-4.527344 -15.481812,-4.909424c-0.0896,-0.001343 -0.155518,0.024292 -0.243652,0.023682c-0.02948,-0.000244 -0.052429,0.007812 -0.081421,0.007446c-2.347961,-0.337524 -4.349976,-0.184326 -5.344482,0.658569c-3.33313,0.934326 -5.317017,2.930908 -8.113525,6.229004c-0.198242,0.233398 -0.117065,0.567627 0.097046,0.789795c1.301086,1.351318 2.504761,2.534302 3.717407,3.494751c-1.150635,1.797974 -2.35498,3.547729 -3.462585,5.273804c-7.822449,11.253662 -17.527649,21.33606 -27.497864,31.125244c-13.402832,13.222534 -27.693115,25.674927 -41.643188,38.441895c-14.010376,13.099609 -28.785889,25.592407 -43.312012,38.238403c-14.402527,11.965454 -28.677246,24.040161 -43.188232,35.901611c-13.931519,12.141968 -28.389404,23.770142 -42.834839,35.42981c-15.390381,13.052856 -31.636475,25.197998 -48.51532,36.703247c-13.395447,8.094604 -27.075867,15.864624 -41.057922,23.126953c-19.502014,18.18457 4.640137,26.216064 24.179932,21.513184c23.494812,-7.246704 47.32251,-12.980347 71.859985,-16.633667c12.342224,-1.626465 24.795471,-2.963013 37.200928,-2.988159c-5.078064,8.535889 -10.66803,16.781738 -15.189819,25.585693c-7.959717,15.675415 -0.880859,28.529785 18.475403,31.290894c16.471008,-2.297729 32.352234,-6.997559 48.790344,-9.695801c13.085815,-1.572876 26.256287,-2.130859 39.403564,-3.130127c14.502808,-1.443604 28.977417,-2.928223 43.573242,-3.30957c6.957336,-0.75354 13.571899,-0.230225 19.797852,1.226074c-0.288574,0.545288 -0.486938,0.970947 -0.862366,1.680176c-6.838318,9.528809 -14.074646,18.297974 -13.668152,29.945068c5.379517,15.316162 20.662292,11.76355 33.89447,7.574463c10.569702,-3.747925 21.555725,-5.541382 32.797241,-6.055298c3.14978,1.386963 3.991394,2.739258 6.210327,5.727539c6.46637,7.933716 15.376343,13.279907 24.759644,18.190796c8.398193,4.302612 17.31604,6.496582 26.563477,7.476929c-1.621338,0.573608 -3.188477,1.159912 -4.794312,1.768311c-7.583618,4.034546 -13.180908,8.778687 -21.423828,11.650146c-0.306396,0.107056 0.034912,0.873047 0.341309,0.765991c8.145996,-2.836792 15.616943,-2.729736 24.294189,-3.640747c18.390503,-3.706787 36.71106,-7.981079 55.551636,-9.544556c15.609009,-1.459473 31.842773,-0.475952 46.773071,-5.361694c11.858154,-5.418579 15.201904,-13.267334 10.504395,-24.261841c-2.490234,-6.613159 -4.968872,-12.003296 1.951294,-16.245972c7.346802,-4.690552 15.752563,-7.776367 24.825684,-9.358643c24.86438,-5.973267 49.899536,-11.319336 75.357544,-14.934814c30.923584,-4.157593 62.219482,-7.060669 93.251709,-1.755615c4.49585,0.598877 11.396484,1.509766 17.692261,2.808472c2.172241,4.069336 5.438354,6.644531 9.150513,9.585571c5.465576,3.353882 11.462524,3.234009 17.758301,3.382202c18.025757,-0.542114 22.796875,-23.978149 8.688721,-33.02478c-1.799561,-0.34668 -3.611206,-0.595581 -5.442139,-0.787964c0.085449,0.066162 0.190308,0.119873 0.271484,0.192383c-0.255981,-0.094727 -0.515869,-0.201782 -0.775757,-0.290039c-4.049683,-0.394165 -8.134277,-0.428711 -12.281128,-0.274292c1.38501,-0.951904 3.258545,-1.509766 5.562622,-1.550781c0.853394,0.182861 1.7146,0.223755 2.587524,0.334106c-0.201782,-0.097778 -0.415283,-0.195435 -0.612915,-0.305786c-5.834229,-3.234131 -11.633301,-6.46814 -16.466553,-10.918945c-9.235962,-8.384644 -17.734741,-17.20105 -26.303589,-26.105713c-12.71167,-14.651123 -25.554932,-29.280151 -35.601563,-45.563965c-14.356201,-20.964722 -28.243164,-42.134277 -41.831299,-63.495728c-13.223755,-21.655151 -25.85376,-43.625366 -39.63208,-65.014648c-10.104858,-15.90271 -20.834351,-31.475098 -30.892578,-47.395264c-4.34436,-7.249146 -7.916992,-14.883911 -9.07666,-23.037231c1.240967,-0.28894 2.439819,-0.580811 3.665527,-0.933228c8.227417,-3.925049 12.94043,-8.953003 8.716309,-17.404785c-5.911621,-6.987793 -12.944336,-13.089722 -18.906616,-20.059326c-10.725464,-12.427002 -20.62854,-25.377686 -31.435425,-37.75061c-8.84021,-10.057739 -18.192627,-19.769043 -25.869263,-30.582031c-5.306519,-4.67334 -9.173828,-7.846558 -17.203491,-6.197754c-1.698975,0.342285 -3.273804,0.970215 -5.054199,0.994263c-1.388916,-0.59021 -3.60376,-0.512573 -4.16626,-1.78064c-4.495728,-6.538818 -8.347656,-13.314209 -10.841797,-20.6875c-2.44751,-7.622803 -4.104004,-15.604858 -8.211914,-22.684326c-4.883789,-3.094116 -9.072998,-5.162231 -13.487305,-4.737183l0,0z" stroke-width="1px" fill-rule="nonzero" fill="url(#svg_4)" id="svg_32"/>
  </g>
 </g>
</svg>